<mxfile host="app.diagrams.net" modified="2023-06-27T07:07:13.809Z" agent="Mozilla/5.0 (Windows NT 10.0; Win64; x64) AppleWebKit/537.36 (KHTML, like Gecko) Chrome/114.0.0.0 Safari/537.36 Edg/114.0.1823.58" etag="zCu-MiWjibtAYiQoYNKk" version="21.5.0" type="github">
  <diagram name="Page-1" id="4nkYKMSx456az4AhIe6s">
    <mxGraphModel dx="912" dy="573" grid="1" gridSize="10" guides="1" tooltips="1" connect="1" arrows="1" fold="1" page="1" pageScale="1" pageWidth="850" pageHeight="1100" math="0" shadow="0">
      <root>
        <mxCell id="0" />
        <mxCell id="1" parent="0" />
        <mxCell id="4J1bOibT304KAJln8EJY-6" style="edgeStyle=orthogonalEdgeStyle;rounded=0;orthogonalLoop=1;jettySize=auto;html=1;exitX=0.5;exitY=1;exitDx=0;exitDy=0;entryX=0.5;entryY=0;entryDx=0;entryDy=0;labelBackgroundColor=none;strokeColor=#0B4D6A;fontColor=default;" edge="1" parent="1" source="4J1bOibT304KAJln8EJY-1" target="4J1bOibT304KAJln8EJY-2">
          <mxGeometry relative="1" as="geometry" />
        </mxCell>
        <mxCell id="4J1bOibT304KAJln8EJY-7" style="edgeStyle=orthogonalEdgeStyle;rounded=0;orthogonalLoop=1;jettySize=auto;html=1;exitX=0.5;exitY=1;exitDx=0;exitDy=0;entryX=0.5;entryY=0;entryDx=0;entryDy=0;labelBackgroundColor=none;strokeColor=#0B4D6A;fontColor=default;" edge="1" parent="1" source="4J1bOibT304KAJln8EJY-1" target="4J1bOibT304KAJln8EJY-3">
          <mxGeometry relative="1" as="geometry" />
        </mxCell>
        <mxCell id="4J1bOibT304KAJln8EJY-1" value="SosialApi - Keurais" style="rounded=0;whiteSpace=wrap;html=1;labelBackgroundColor=none;fillColor=#09555B;strokeColor=#BAC8D3;fontColor=#EEEEEE;" vertex="1" parent="1">
          <mxGeometry x="340" y="80" width="120" height="60" as="geometry" />
        </mxCell>
        <mxCell id="4J1bOibT304KAJln8EJY-8" style="edgeStyle=orthogonalEdgeStyle;rounded=0;orthogonalLoop=1;jettySize=auto;html=1;exitX=0.5;exitY=1;exitDx=0;exitDy=0;entryX=0.5;entryY=0;entryDx=0;entryDy=0;entryPerimeter=0;labelBackgroundColor=none;strokeColor=#0B4D6A;fontColor=default;" edge="1" parent="1" source="4J1bOibT304KAJln8EJY-2" target="4J1bOibT304KAJln8EJY-4">
          <mxGeometry relative="1" as="geometry" />
        </mxCell>
        <mxCell id="4J1bOibT304KAJln8EJY-2" value="webhook keurais" style="rounded=0;whiteSpace=wrap;html=1;labelBackgroundColor=none;fillColor=#09555B;strokeColor=#BAC8D3;fontColor=#EEEEEE;" vertex="1" parent="1">
          <mxGeometry x="230" y="220" width="120" height="60" as="geometry" />
        </mxCell>
        <mxCell id="4J1bOibT304KAJln8EJY-9" style="edgeStyle=orthogonalEdgeStyle;rounded=0;orthogonalLoop=1;jettySize=auto;html=1;exitX=0.5;exitY=1;exitDx=0;exitDy=0;labelBackgroundColor=none;strokeColor=#0B4D6A;fontColor=default;" edge="1" parent="1" source="4J1bOibT304KAJln8EJY-3" target="4J1bOibT304KAJln8EJY-5">
          <mxGeometry relative="1" as="geometry" />
        </mxCell>
        <mxCell id="4J1bOibT304KAJln8EJY-3" value="webhook quickup" style="rounded=0;whiteSpace=wrap;html=1;labelBackgroundColor=none;fillColor=#09555B;strokeColor=#BAC8D3;fontColor=#EEEEEE;" vertex="1" parent="1">
          <mxGeometry x="470" y="220" width="120" height="60" as="geometry" />
        </mxCell>
        <mxCell id="4J1bOibT304KAJln8EJY-4" value="DB keurais" style="shape=cylinder3;whiteSpace=wrap;html=1;boundedLbl=1;backgroundOutline=1;size=15;labelBackgroundColor=none;fillColor=#09555B;strokeColor=#BAC8D3;fontColor=#EEEEEE;" vertex="1" parent="1">
          <mxGeometry x="260" y="360" width="60" height="80" as="geometry" />
        </mxCell>
        <mxCell id="4J1bOibT304KAJln8EJY-5" value="DB quickup" style="shape=cylinder3;whiteSpace=wrap;html=1;boundedLbl=1;backgroundOutline=1;size=15;labelBackgroundColor=none;fillColor=#09555B;strokeColor=#BAC8D3;fontColor=#EEEEEE;" vertex="1" parent="1">
          <mxGeometry x="500" y="360" width="60" height="80" as="geometry" />
        </mxCell>
      </root>
    </mxGraphModel>
  </diagram>
</mxfile>
